<?xml version="1.0" encoding="UTF-8"?>
<svg width="61px" height="61px" viewBox="0 0 61 61" version="1.1" xmlns="http://www.w3.org/2000/svg" xmlns:xlink="http://www.w3.org/1999/xlink">
    <!-- Generator: Sketch 53.2 (72643) - https://sketchapp.com -->
    <title>yuebaoshuoming</title>
    <desc>Created with Sketch.</desc>
    <defs>
        <filter x="-41.1%" y="-41.1%" width="182.2%" height="182.2%" filterUnits="objectBoundingBox" id="filter-1">
            <feOffset dx="0" dy="2" in="SourceAlpha" result="shadowOffsetOuter1"></feOffset>
            <feGaussianBlur stdDeviation="3.5" in="shadowOffsetOuter1" result="shadowBlurOuter1"></feGaussianBlur>
            <feColorMatrix values="0 0 0 0 0.357143629   0 0 0 0 0.878793025   0 0 0 0 0.804271683  0 0 0 0.661467439 0" type="matrix" in="shadowBlurOuter1" result="shadowMatrixOuter1"></feColorMatrix>
            <feMerge>
                <feMergeNode in="shadowMatrixOuter1"></feMergeNode>
                <feMergeNode in="SourceGraphic"></feMergeNode>
            </feMerge>
        </filter>
    </defs>
    <g id="新" stroke="none" stroke-width="1" fill="none" fill-rule="evenodd">
        <g id="余额宝初始" transform="translate(-272.000000, -314.000000)">
            <g id="yuebaoshuoming" transform="translate(280.000000, 320.000000)">
                <g id="底色" filter="url(#filter-1)" fill="#76E9D9" stroke="#52D3C2" stroke-width="2">
                    <circle id="Oval" cx="22.5" cy="22.5" r="22.5"></circle>
                </g>
                <g id="书本-说明" transform="translate(10.000000, 11.000000)" fill="#FFFFFF" fill-rule="nonzero">
                    <path d="M0,3.81828392 L0,19.2087575 C0,20.7478049 1.93888048,21.6670549 2.91558245,22.0048096 L12,24 L12,3.01742217 L2.91558245,1.0187498 C1.26717095,0.816793359 0,2.27923655 0,3.81828392 Z M21.8509804,1.01937082 L12,3.01480961 L12,24 L21.8509804,22.0010788 C22.9058824,21.663282 25,20.7439175 25,19.2046785 L25,3.81228863 C25,2.27653208 23.6313725,0.813906797 21.8509804,1.01937082 Z" id="形状" fill-opacity="0.33"></path>
                    <path d="M12.4293208,24.9023438 C12.3862507,24.9023438 12.3431806,24.8987321 12.3036996,24.8878971 L3.32357813,22.8147968 C3.30204307,22.8111851 3.28050801,22.8039618 3.25897294,22.7967384 C2.49447819,22.5186396 0,21.4531961 0,19.3584258 L0,3.39483147 C0,2.52802997 0.315847598,1.65761679 0.872170072,1.00390399 C1.47156267,0.296016099 2.28271673,-0.09765625 3.14770845,-0.09765625 C3.27332965,-0.09765625 3.39895086,-0.0904329041 3.52457206,-0.0723745395 L3.57840972,-0.0615395207 L12.5585312,2.01156074 C12.816952,2.06934751 13,2.30410625 13,2.56775837 L13,24.3316994 C13,24.5050597 12.9210381,24.6711967 12.7846494,24.7795469 C12.6805632,24.8590037 12.5585312,24.9023438 12.4293208,24.9023438 Z M3.53647925,21.962363 L12,23.9023438 L12,2.9159481 L3.27141901,0.913387284 C3.20147256,0.906024928 3.1315261,0.90234375 3.06157965,0.90234375 C1.82831325,0.90234375 1,2.13921955 1,3.29510944 L1,19.5659161 C1,20.9426767 3.04317269,21.7783041 3.53647925,21.962363 Z" id="形状" stroke="#FFFFFF" stroke-width="0.6"></path>
                    <path d="M12.5705217,24.9023438 C12.4449351,24.9023438 12.3193486,24.8590037 12.2152912,24.7795469 C12.0789401,24.6711967 12,24.5050597 12,24.3316994 L12,2.56775837 C12,2.30049457 12.1829975,2.06934751 12.441347,2.01156074 L21.422578,-0.0615395207 L21.4764008,-0.0723745395 C21.6019873,-0.0868212312 21.7275738,-0.09765625 21.8531604,-0.09765625 C22.7215015,-0.09765625 23.5288435,0.292404426 24.1280707,1.00390399 C24.6806514,1.65761679 25,2.52802997 25,3.39483147 L25,19.3584258 C25,21.4531961 22.5062103,22.5186396 21.7419266,22.7967384 C21.7203975,22.8039618 21.6988683,22.8111851 21.6773392,22.8147968 L12.6996964,24.8878971 C12.6566381,24.8951204 12.6135799,24.9023438 12.5705217,24.9023438 Z M13,2.9159481 L13,23.9023438 L21.4606892,21.962363 C21.9538307,21.7819852 24,20.9426767 24,19.5659161 L24,3.29510944 C24,2.13921955 23.1719639,0.90234375 21.9391101,0.90234375 C21.869187,0.90234375 21.799264,0.906024928 21.7293409,0.913387284 L13,2.9159481 L13,2.9159481 Z" id="形状" stroke="#FFFFFF" stroke-width="0.5"></path>
                    <path d="M15.6049005,9.99787768 C15.5283308,9.99787768 15.4517611,9.98365179 15.3790199,9.9552 C15.1493109,9.86984464 15,9.66356918 15,9.43239841 L15,2.33367752 C15,2.02426434 15.2718224,1.77175473 15.6049005,1.77175473 C15.9379786,1.77175473 16.2098009,2.02426434 16.2098009,2.33367752 L16.2098009,8.04537379 L17.0061256,7.28073201 C17.1171516,7.17403781 17.270291,7.11357776 17.4310873,7.11002129 C17.5918836,7.10646481 17.7488515,7.16336839 17.863706,7.27006259 L18.7901991,8.10583384 L18.7901991,1.5619228 C18.7901991,1.25250961 19.0620214,1 19.3950995,1 C19.7281776,1 20,1.25250961 20,1.5619228 L20,9.43595489 C20,9.66356918 19.8545176,9.86628817 19.6286371,9.9552 C19.4027565,10.0441118 19.1462481,9.99787768 18.9701378,9.84139285 L17.4502297,8.4721506 L16.0336907,9.83072343 C15.9264931,9.94097411 15.7656968,9.99787768 15.6049005,9.99787768 L15.6049005,9.99787768 Z" id="路径"></path>
                </g>
            </g>
        </g>
    </g>
</svg>