<?xml version="1.0" encoding="UTF-8"?>
<svg width="61px" height="61px" viewBox="0 0 61 61" version="1.1" xmlns="http://www.w3.org/2000/svg" xmlns:xlink="http://www.w3.org/1999/xlink">
    <!-- Generator: Sketch 53.2 (72643) - https://sketchapp.com -->
    <title>zhuanru</title>
    <desc>Created with Sketch.</desc>
    <defs>
        <filter x="-41.1%" y="-41.1%" width="182.2%" height="182.2%" filterUnits="objectBoundingBox" id="filter-1">
            <feOffset dx="0" dy="2" in="SourceAlpha" result="shadowOffsetOuter1"></feOffset>
            <feGaussianBlur stdDeviation="3.5" in="shadowOffsetOuter1" result="shadowBlurOuter1"></feGaussianBlur>
            <feColorMatrix values="0 0 0 0 1   0 0 0 0 0.443137255   0 0 0 0 0.552941176  0 0 0 0.657643138 0" type="matrix" in="shadowBlurOuter1" result="shadowMatrixOuter1"></feColorMatrix>
            <feMerge>
                <feMergeNode in="shadowMatrixOuter1"></feMergeNode>
                <feMergeNode in="SourceGraphic"></feMergeNode>
            </feMerge>
        </filter>
    </defs>
    <g id="新" stroke="none" stroke-width="1" fill="none" fill-rule="evenodd">
        <g id="余额宝初始" transform="translate(-42.000000, -314.000000)">
            <g id="zhuanru" filter="url(#filter-1)" transform="translate(50.000000, 320.000000)">
                <circle id="Oval" stroke="#FB4162" stroke-width="2" fill="#FF718D" cx="22.5" cy="22.5" r="22.5"></circle>
                <g id="银行卡转入" transform="translate(10.000000, 13.000000)" fill="#FFFFFF">
                    <rect id="矩形" opacity="0.33" x="0" y="1" width="25" height="5"></rect>
                    <path d="M23.6976812,0 L2.30231884,0 C1.03121383,0.00104041968 0.00103891182,1.03271051 0,2.30566037 L0,8.86792453 C1.58921195e-16,9.18053854 0.253056445,9.43396227 0.56521739,9.43396227 C0.877378335,9.43396227 1.13043478,9.18053854 1.13043478,8.86792453 L1.13043478,6.03773584 L24.8695652,6.03773584 L24.8695652,17.6943396 C24.8695652,18.0055937 24.7460992,18.3040996 24.5263283,18.5241895 C24.3065574,18.7442793 24.0084841,18.8679245 23.6976812,18.8679245 L0.795072455,18.8679245 C0.48291151,18.8679245 0.229855065,19.1213483 0.229855065,19.4339623 C0.229855065,19.7465763 0.48291151,20 0.795072455,20 L23.6976812,20 C24.9687862,19.9989596 25.9989611,18.9672895 26,17.6943396 L26,2.30566037 C25.9989611,1.03271051 24.9687862,0.00104041968 23.6976812,0 Z M24.8695652,4.90566037 L1.13043478,4.90566037 L1.13043478,2.30566037 C1.13147213,1.65793812 1.65553531,1.13311432 2.30231884,1.13207547 L23.6976812,1.13207547 C24.3448949,1.13207547 24.8695652,1.65750733 24.8695652,2.30566037 L24.8695652,4.90566037 Z" id="形状" stroke="#FFFFFF" stroke-width="0.5" fill-rule="nonzero"></path>
                    <path d="M20.4819771,10 C20.7680733,10 21,9.77614237 21,9.5 C21,9.22385763 20.7680733,9 20.4819771,9 L13.5180229,9 C13.2319267,9 13,9.22385763 13,9.5 C13,9.77614237 13.2319267,10 13.5180229,10 L20.4819771,10 Z M3.58249011,15.9671143 C3.66650385,16.0102431 3.77012782,16.0109975 3.85493826,15.9690977 C3.93974869,15.9271979 3.99310058,15.848891 3.99521104,15.7632134 L3.99521104,14.4429914 L11.5007408,14.4429914 C11.776474,14.4429914 12,14.2459636 12,14.0029174 C12,13.7598713 11.776474,13.5628434 11.5007408,13.5628434 L3.99521104,13.5628434 L3.99521104,12.2426215 C3.99544714,12.1558935 3.94302132,12.0756829 3.85778398,12.0323604 C3.77254663,11.9890378 3.66752725,11.9892257 3.58249011,12.0328529 L0.137601724,13.7931488 C0.0524704062,13.8363444 1.68307559e-16,13.9163336 0,14.0029174 C-1.83608246e-16,14.0895013 0.0524704062,14.1694904 0.137601724,14.212686 L3.58249011,15.9671143 Z" id="形状" stroke="#FFFFFF" stroke-width="0.5" fill-rule="nonzero" transform="translate(10.500000, 12.500000) scale(-1, -1) translate(-10.500000, -12.500000) "></path>
                </g>
            </g>
        </g>
    </g>
</svg>